PathFileType	4	(X/Y/Z)	 2.2Hzhigh3min.trc
DataRate	CameraRate	NumFrames	NumMarkers	Units	OrigDataRate	OrigDataStartFrame	OrigNumFrames
200	200	10	35	m	200	751	1000
Frame#	Time	C7			LSH			RSH			MAN			RASI			LASI			HIPR			HIPL			RPSI			LPSI			COX			RTHI1			RTHI2			RTHI3			RTHI4			RSHA1			RSHA2			RSHA3			RSHA4			RHEEL			RMET5			RMET1			RTOE			LTHI1			LTHI2			LTHI3			LTHI4			LSHA1			LSHA2			LSHA3			LSHA4			LHEEL			LMET5			LMET1			LTOE			
		X1	Y1	Z1	X2	Y2	Z2	X3	Y3	Z3	X4	Y4	Z4	X5	Y5	Z5	X6	Y6	Z6	X7	Y7	Z7	X8	Y8	Z8	X9	Y9	Z9	X10	Y10	Z10	X11	Y11	Z11	X12	Y12	Z12	X13	Y13	Z13	X14	Y14	Z14	X15	Y15	Z15	X16	Y16	Z16	X17	Y17	Z17	X18	Y18	Z18	X19	Y19	Z19	X20	Y20	Z20	X21	Y21	Z21	X22	Y22	Z22	X23	Y23	Z23	X24	Y24	Z24	X25	Y25	Z25	X26	Y26	Z26	X27	Y27	Z27	X28	Y28	Z28	X29	Y29	Z29	X30	Y30	Z30	X31	Y31	Z31	X32	Y32	Z32	X33	Y33	Z33	X34	Y34	Z34	X35	Y35	Z35	
751	3.7550	-0.000000	0.000000	-0.000000	-0.222639	1.386034	-0.712329	-0.233896	1.366842	-0.372355	-0.150590	1.336273	-0.540283	-0.122429	0.945455	-0.416595	-0.112001	0.946378	-0.644041	-0.185773	0.991718	-0.393032	-0.174224	0.984375	-0.678928	-0.282351	0.970226	-0.485290	-0.280645	0.968148	-0.590862	-0.280775	0.979481	-0.534097	-0.208445	0.743655	-0.369280	-0.186257	0.688388	-0.367593	-0.125800	0.710756	-0.359114	-0.141347	0.769979	-0.360793	-0.207764	0.376216	-0.358714	-0.229478	0.339059	-0.364671	-0.158016	0.353405	-0.376616	-0.174449	0.316626	-0.378654	-0.356297	0.125206	-0.424870	-0.230489	0.032700	-0.373374	-0.198243	0.036311	-0.445323	-0.172190	0.027364	-0.441376	-0.182452	0.735205	-0.712901	-0.155635	0.679962	-0.707391	-0.096265	0.703418	-0.698345	-0.114282	0.761202	-0.702449	-0.214263	0.341174	-0.703197	-0.234743	0.306310	-0.702670	-0.179456	0.281815	-0.685215	-0.165177	0.323599	-0.688796	-0.360325	0.109898	-0.655421	-0.223075	0.036414	-0.698175	-0.192322	0.036697	-0.632149	-0.167359	0.025905	-0.628932	
752	3.7600	-0.000000	0.000000	-0.000000	-0.222812	1.393012	-0.712266	-0.234215	1.373632	-0.372855	-0.150905	1.343173	-0.540436	-0.121822	0.951871	-0.417119	-0.111329	0.952946	-0.644366	-0.185234	0.998654	-0.393681	-0.173731	0.991443	-0.679022	-0.281581	0.976501	-0.485716	-0.279897	0.974545	-0.591373	-0.280141	0.985549	-0.534556	-0.208506	0.750074	-0.369659	-0.186705	0.694631	-0.367965	-0.126047	0.716608	-0.359632	-0.141208	0.775914	-0.361337	-0.209066	0.381335	-0.358556	-0.230333	0.343896	-0.364349	-0.159056	0.359044	-0.376315	-0.175038	0.322021	-0.378187	-0.353911	0.128713	-0.423928	-0.229612	0.033192	-0.373402	-0.198004	0.036288	-0.445285	-0.172251	0.027420	-0.441461	-0.182046	0.741774	-0.713631	-0.155634	0.686350	-0.707846	-0.096197	0.709434	-0.698202	-0.113826	0.767325	-0.702475	-0.215279	0.346139	-0.703893	-0.235277	0.310992	-0.703375	-0.179700	0.287243	-0.685823	-0.165966	0.329186	-0.689432	-0.357786	0.113606	-0.655926	-0.222047	0.037056	-0.698111	-0.192050	0.036653	-0.632023	-0.167433	0.025911	-0.628887	
753	3.7650	-0.000000	0.000000	-0.000000	-0.222975	1.400115	-0.712167	-0.234558	1.380590	-0.373379	-0.151303	1.350248	-0.540567	-0.121221	0.958457	-0.417685	-0.110682	0.959654	-0.644706	-0.184557	1.005916	-0.394457	-0.173149	0.998682	-0.679120	-0.280797	0.982926	-0.486142	-0.279147	0.981090	-0.591893	-0.279499	0.991744	-0.535022	-0.208623	0.756628	-0.370039	-0.187232	0.701003	-0.368333	-0.126360	0.722566	-0.360080	-0.141134	0.781971	-0.361855	-0.210458	0.386592	-0.358444	-0.231233	0.348859	-0.364039	-0.160158	0.364878	-0.375937	-0.175648	0.327593	-0.377651	-0.351239	0.132297	-0.423174	-0.228709	0.033683	-0.373449	-0.197736	0.036252	-0.445246	-0.172319	0.027476	-0.441548	-0.181749	0.748469	-0.714361	-0.155739	0.692878	-0.708368	-0.096232	0.715582	-0.698187	-0.113471	0.773578	-0.702608	-0.216323	0.351215	-0.704621	-0.235816	0.315767	-0.704067	-0.179913	0.292824	-0.686506	-0.166769	0.334945	-0.690175	-0.355025	0.117398	-0.656241	-0.221003	0.037706	-0.698033	-0.191745	0.036601	-0.631875	-0.167503	0.025919	-0.628833	
754	3.7700	-0.000000	0.000000	-0.000000	-0.223124	1.407292	-0.712035	-0.234909	1.387658	-0.373932	-0.151687	1.357407	-0.540706	-0.120662	0.965138	-0.418291	-0.110061	0.966446	-0.645059	-0.183757	1.013379	-0.395342	-0.172487	1.006014	-0.679216	-0.279995	0.989459	-0.486571	-0.278393	0.987744	-0.592417	-0.278858	0.998029	-0.535491	-0.208796	0.763259	-0.370433	-0.187830	0.707475	-0.368683	-0.126747	0.728586	-0.360474	-0.141113	0.788108	-0.362350	-0.211939	0.391931	-0.358358	-0.232177	0.353899	-0.363749	-0.161320	0.370846	-0.375482	-0.176276	0.333285	-0.377036	-0.348283	0.135918	-0.422578	-0.227778	0.034176	-0.373530	-0.197437	0.036210	-0.445204	-0.172394	0.027532	-0.441628	-0.181574	0.755253	-0.715080	-0.155954	0.699501	-0.708952	-0.096377	0.721820	-0.698319	-0.113224	0.779923	-0.702865	-0.217405	0.356338	-0.705348	-0.236370	0.320604	-0.704724	-0.180097	0.298526	-0.687258	-0.167590	0.340822	-0.691015	-0.352036	0.121251	-0.656345	-0.219948	0.038351	-0.697941	-0.191404	0.036545	-0.631705	-0.167561	0.025931	-0.628771	
755	3.7750	-0.000000	0.000000	-0.000000	-0.223249	1.414496	-0.711870	-0.235260	1.394791	-0.374500	-0.152128	1.364626	-0.540841	-0.120134	0.971861	-0.418939	-0.109464	0.973257	-0.645413	-0.182863	1.020931	-0.396309	-0.171752	1.013367	-0.679319	-0.279177	0.996056	-0.486997	-0.277638	0.994463	-0.592945	-0.278211	1.004379	-0.535971	-0.209020	0.769932	-0.370838	-0.188487	0.714004	-0.368993	-0.127220	0.734657	-0.360861	-0.141143	0.794287	-0.362818	-0.213507	0.397306	-0.358300	-0.233162	0.358966	-0.363472	-0.162527	0.376894	-0.374955	-0.176918	0.339064	-0.376350	-0.344966	0.139527	-0.422205	-0.226829	0.034671	-0.373635	-0.197087	0.036168	-0.445167	-0.172466	0.027584	-0.441685	-0.181533	0.762086	-0.715788	-0.156293	0.706184	-0.709592	-0.096636	0.728119	-0.698616	-0.113100	0.786319	-0.703245	-0.218532	0.361480	-0.706050	-0.236940	0.325461	-0.705323	-0.180253	0.304307	-0.688075	-0.168438	0.346772	-0.691934	-0.348817	0.125146	-0.656242	-0.218889	0.038994	-0.697834	-0.191014	0.036513	-0.631519	-0.167584	0.025948	-0.628707	
756	3.7800	-0.000000	0.000000	-0.000000	-0.223349	1.421678	-0.711680	-0.235604	1.401924	-0.375124	-0.152584	1.371851	-0.540979	-0.119619	0.978566	-0.419618	-0.108883	0.980029	-0.645769	-0.181897	1.028465	-0.397334	-0.170959	1.020679	-0.679430	-0.278338	1.002680	-0.487425	-0.276874	1.001206	-0.593470	-0.277558	1.010753	-0.536461	-0.209281	0.776611	-0.371238	-0.189185	0.720538	-0.369235	-0.127775	0.740741	-0.361227	-0.141208	0.800466	-0.363264	-0.215161	0.402677	-0.358288	-0.234183	0.363994	-0.363238	-0.163785	0.382980	-0.374396	-0.177568	0.344885	-0.375595	-0.341269	0.143045	-0.422071	-0.225854	0.035172	-0.373769	-0.196653	0.036172	-0.445136	-0.172515	0.027637	-0.441697	-0.181635	0.768949	-0.716490	-0.156763	0.712889	-0.710284	-0.097011	0.734443	-0.699078	-0.113101	0.792735	-0.703736	-0.219718	0.366602	-0.706693	-0.237536	0.330300	-0.705845	-0.180387	0.310112	-0.688957	-0.169316	0.352751	-0.692912	-0.345381	0.129066	-0.655945	-0.217820	0.039637	-0.697718	-0.190539	0.036550	-0.631340	-0.167546	0.025981	-0.628656	
757	3.7850	-0.000000	0.000000	-0.000000	-0.223427	1.428797	-0.711466	-0.235935	1.409016	-0.375783	-0.153039	1.379023	-0.541121	-0.119101	0.985192	-0.420321	-0.108322	0.986705	-0.646121	-0.180892	1.035897	-0.398382	-0.170114	1.027898	-0.679553	-0.277477	1.009298	-0.487852	-0.276095	1.007937	-0.593993	-0.276899	1.017123	-0.536954	-0.209564	0.783259	-0.371606	-0.189913	0.727049	-0.369416	-0.128371	0.746792	-0.361525	-0.141298	0.806612	-0.363689	-0.216895	0.407990	-0.358348	-0.235234	0.368962	-0.363069	-0.165093	0.389056	-0.373827	-0.178230	0.350707	-0.374804	-0.337314	0.146623	-0.422029	-0.224852	0.035693	-0.373943	-0.196119	0.036258	-0.445092	-0.172511	0.027700	-0.441635	-0.181885	0.775798	-0.717180	-0.157370	0.719583	-0.711020	-0.097501	0.740761	-0.699703	-0.113227	0.799142	-0.704334	-0.220968	0.371675	-0.707251	-0.238165	0.335077	-0.706276	-0.180513	0.315906	-0.689907	-0.170235	0.358707	-0.693937	-0.341754	0.132998	-0.655494	-0.216732	0.040299	-0.697599	-0.189951	0.036690	-0.631175	-0.167407	0.026043	-0.628626	
758	3.7900	-0.000000	0.000000	-0.000000	-0.223473	1.435811	-0.711235	-0.236252	1.416032	-0.376462	-0.153397	1.386077	-0.541281	-0.118604	0.991677	-0.421054	-0.107773	0.993230	-0.646469	-0.179872	1.043164	-0.399419	-0.169240	1.034977	-0.679689	-0.276593	1.015882	-0.488291	-0.275293	1.014621	-0.594510	-0.276233	1.023460	-0.537459	-0.209862	0.789826	-0.371950	-0.190663	0.733486	-0.369529	-0.128998	0.752769	-0.361763	-0.141400	0.812669	-0.364086	-0.218703	0.413195	-0.358499	-0.236304	0.373823	-0.362985	-0.166447	0.395070	-0.373269	-0.178902	0.356488	-0.374002	-0.333137	0.150235	-0.422072	-0.223796	0.036265	-0.374167	-0.195448	0.036458	-0.445024	-0.172419	0.027795	-0.441473	-0.182279	0.782610	-0.717858	-0.158113	0.726237	-0.711793	-0.098108	0.747028	-0.700479	-0.113483	0.805494	-0.705022	-0.222301	0.376662	-0.707704	-0.238837	0.339768	-0.706612	-0.180656	0.321636	-0.690925	-0.171208	0.364602	-0.694993	-0.337977	0.136935	-0.654967	-0.215617	0.041004	-0.697491	-0.189219	0.036975	-0.631041	-0.167135	0.026149	-0.628637	
759	3.7950	-0.000000	0.000000	-0.000000	-0.223466	1.442681	-0.710991	-0.236554	1.422935	-0.377153	-0.153852	1.393037	-0.541426	-0.118106	0.997981	-0.421815	-0.107234	0.999559	-0.646803	-0.178862	1.050205	-0.400417	-0.168340	1.041873	-0.679840	-0.275683	1.022399	-0.488746	-0.274462	1.021234	-0.595029	-0.275557	1.029748	-0.537974	-0.210167	0.796288	-0.372259	-0.191422	0.739807	-0.369578	-0.129635	0.758631	-0.361939	-0.141517	0.818603	-0.364453	-0.220572	0.418253	-0.358770	-0.237394	0.378524	-0.363024	-0.167835	0.400992	-0.372732	-0.179572	0.362184	-0.373206	-0.328731	0.153884	-0.422139	-0.222674	0.036910	-0.374431	-0.194606	0.036815	-0.444921	-0.172202	0.027932	-0.441191	-0.182810	0.789346	-0.718520	-0.158992	0.732814	-0.712605	-0.098827	0.753213	-0.701387	-0.113859	0.811760	-0.705789	-0.223723	0.381544	-0.708040	-0.239563	0.344339	-0.706842	-0.180835	0.327263	-0.692014	-0.172253	0.370386	-0.696063	-0.334104	0.140891	-0.654440	-0.214469	0.041798	-0.697401	-0.188318	0.037458	-0.630974	-0.166700	0.026324	-0.628706	
760	3.8000	-0.000000	0.000000	-0.000000	-0.223408	1.449380	-0.710739	-0.236838	1.429681	-0.377878	-0.154270	1.399824	-0.541575	-0.117620	1.004051	-0.422590	-0.106709	1.005654	-0.647130	-0.177884	1.056978	-0.401360	-0.167422	1.048549	-0.680009	-0.274757	1.028834	-0.489221	-0.273599	1.027749	-0.595543	-0.274876	1.035961	-0.538503	-0.210470	0.802593	-0.372505	-0.192188	0.745960	-0.369575	-0.130269	0.764324	-0.362043	-0.141643	0.824369	-0.364795	-0.222479	0.423123	-0.359187	-0.238485	0.383035	-0.363199	-0.169259	0.406770	-0.372274	-0.180243	0.367748	-0.372437	-0.324198	0.157622	-0.422177	-0.221452	0.037668	-0.374738	-0.193566	0.037373	-0.444772	-0.171826	0.028128	-0.440779	-0.183468	0.795977	-0.719160	-0.159996	0.739280	-0.713450	-0.099660	0.759272	-0.702396	-0.114342	0.817904	-0.706611	-0.225230	0.386282	-0.708252	-0.240357	0.348765	-0.706970	-0.181082	0.332745	-0.693164	-0.173377	0.376023	-0.697141	-0.330199	0.144854	-0.653977	-0.213283	0.042714	-0.697336	-0.187233	0.038165	-0.630992	-0.166083	0.026593	-0.628859	
